<svg version="1.1" id="Layer_1" xmlns="http://www.w3.org/2000/svg" xmlns:xlink="http://www.w3.org/1999/xlink" x="0px" y="0px"
	 width="100%" viewBox="0 0 800 800" enable-background="new 0 0 800 800" xml:space="preserve">
<path fill="#212121" opacity="0.000000" stroke="none" 
	d="
M1.000000,212.000000 
	C1.000000,141.333328 1.000000,71.166664 1.000000,1.000000 
	C267.666656,1.000000 534.333313,1.000000 801.000000,1.000000 
	C801.000000,267.666656 801.000000,534.333313 801.000000,801.000000 
	C534.333313,801.000000 267.666656,801.000000 1.000000,801.000000 
	C1.000000,604.833313 1.000000,408.666656 1.000000,212.000000 
M745.465881,40.000000 
	C512.486511,40.000000 279.507141,39.999943 46.527748,40.000248 
	C39.178642,40.000259 37.000134,42.221458 37.000126,49.710758 
	C36.999969,284.523865 37.021915,519.336975 36.888317,754.150024 
	C36.884529,760.810242 39.216373,763.115417 45.823761,763.111633 
	C280.970123,762.978271 516.116516,763.000061 751.262939,762.999878 
	C758.967896,762.999878 759.999878,761.943970 759.999878,754.063477 
	C759.999939,520.583557 759.980713,287.103699 760.048950,53.623806 
	C760.052979,39.914654 760.069519,39.625267 745.465881,40.000000 
z"/>
<path fill="#FFFFFF" opacity="1.000000" stroke="none" 
	d="
M745.958435,40.000000 
	C760.069519,39.625267 760.052979,39.914654 760.048950,53.623806 
	C759.980713,287.103699 759.999939,520.583557 759.999878,754.063477 
	C759.999878,761.943970 758.967896,762.999878 751.262939,762.999878 
	C516.116516,763.000061 280.970123,762.978271 45.823761,763.111633 
	C39.216373,763.115417 36.884529,760.810242 36.888317,754.150024 
	C37.021915,519.336975 36.999969,284.523865 37.000126,49.710758 
	C37.000134,42.221458 39.178642,40.000259 46.527748,40.000248 
	C279.507141,39.999943 512.486511,40.000000 745.958435,40.000000 
M360.500000,51.995487 
	C256.743378,51.995487 152.986771,51.995487 49.291180,51.995487 
	C49.291180,285.314301 49.291180,518.041687 49.291180,750.708740 
	C282.314392,750.708740 515.041809,750.708740 747.708618,750.708740 
	C747.708618,517.685486 747.708618,284.958099 747.708618,51.995487 
	C618.775391,51.995487 490.137695,51.995487 360.500000,51.995487 
z"/>
<path fill="#232323" opacity="0.000000" stroke="none" 
	d="
M361.000000,51.995487 
	C490.137695,51.995487 618.775391,51.995487 747.708618,51.995487 
	C747.708618,284.958099 747.708618,517.685486 747.708618,750.708740 
	C515.041809,750.708740 282.314392,750.708740 49.291180,750.708740 
	C49.291180,518.041687 49.291180,285.314301 49.291180,51.995487 
	C152.986771,51.995487 256.743378,51.995487 361.000000,51.995487 
M131.407135,111.798882 
	C131.410217,140.958481 131.416016,170.118073 131.415558,199.277679 
	C131.415161,223.777206 131.411240,248.276749 131.399017,272.776276 
	C131.397232,276.361786 131.565308,278.972412 136.689209,278.967072 
	C278.019714,278.819611 419.350372,278.842224 560.681030,278.835449 
	C563.014282,278.835327 565.353394,278.922913 567.679321,278.788971 
	C570.759338,278.611603 571.791321,280.102997 571.779053,282.994476 
	C571.720459,296.827087 571.722046,310.660095 571.756226,324.492828 
	C571.765137,328.093811 570.269897,329.212280 566.562195,329.209534 
	C423.731628,329.103363 280.901031,329.112396 138.070404,329.102753 
	C131.394287,329.102295 131.408386,329.087860 131.409042,335.684387 
	C131.414093,387.016754 131.416260,438.349121 131.410828,489.681488 
	C131.410080,496.687714 131.388367,496.682861 138.438705,496.682648 
	C281.102661,496.678741 423.766632,496.693939 566.430542,496.584778 
	C570.628906,496.581573 571.905212,497.760742 571.825562,501.930115 
	C571.586670,514.425415 571.723145,526.928040 571.728699,539.427795 
	C571.732056,546.923462 571.745178,546.924561 564.210510,546.924622 
	C422.046509,546.924805 279.882507,546.949890 137.718643,546.820251 
	C132.750458,546.815674 131.261520,547.936523 131.283630,553.150513 
	C131.498398,603.815308 131.454575,654.481506 131.322235,705.146851 
	C131.311569,709.233948 132.336578,710.635437 136.586288,710.607300 
	C162.417999,710.435852 188.252090,710.427856 214.083603,710.613403 
	C218.440384,710.644775 219.761902,709.482361 219.730423,705.007568 
	C219.525208,675.842896 219.616364,646.676086 219.614578,617.510010 
	C219.614120,609.995361 219.711227,609.888306 227.051559,609.885620 
	C247.884491,609.877869 268.719208,610.027344 289.548950,609.770081 
	C294.128784,609.713501 295.125031,611.195923 295.100830,615.470520 
	C294.930939,645.468994 295.063782,675.469238 294.908447,705.467834 
	C294.888153,709.381470 295.947479,710.652649 299.959686,710.606995 
	C317.457092,710.408020 334.959808,710.387939 352.456512,710.615417 
	C356.829071,710.672241 358.109375,709.463989 358.077759,705.002136 
	C357.871094,675.837463 357.962250,646.670654 357.964447,617.504578 
	C357.965027,609.989258 358.061676,609.888977 365.392303,609.885742 
	C386.225250,609.876587 407.059784,610.017761 427.889862,609.772888 
	C432.426880,609.719543 433.472351,611.177246 433.447632,615.465698 
	C433.274872,645.464172 433.410797,675.464417 433.252075,705.463013 
	C433.231293,709.393921 434.305298,710.651001 438.312012,710.606018 
	C455.809479,710.409851 473.312103,710.388611 490.808868,710.615051 
	C495.209351,710.671997 496.444031,709.404663 496.413116,704.963074 
	C496.207703,675.465027 496.286621,645.964905 496.306885,616.465454 
	C496.311127,610.298279 496.713318,609.901306 502.805267,609.893494 
	C523.971497,609.866394 545.139465,610.024353 566.302673,609.768616 
	C570.910400,609.712952 571.844055,611.265015 571.820801,615.499268 
	C571.656616,645.331116 571.818909,675.164978 571.614197,704.996338 
	C571.583557,709.453735 572.863831,710.646973 577.241272,710.614746 
	C602.906067,710.425659 628.573547,710.434265 654.238525,710.608582 
	C658.493713,710.637390 659.958557,709.659241 659.950989,705.084534 
	C659.808594,619.086365 659.842102,533.087952 659.842896,447.089569 
	C659.842957,437.722565 659.854309,437.727051 650.461304,437.727112 
	C510.297272,437.728180 370.133240,437.728241 229.969223,437.725281 
	C228.302963,437.725250 226.630035,437.577240 224.971756,437.681580 
	C220.946533,437.934845 219.427963,436.348267 219.519943,432.122253 
	C219.780991,420.128143 219.626450,408.124725 219.613770,396.124969 
	C219.604858,387.700836 219.967468,387.309875 228.234116,387.309967 
	C325.232269,387.310852 422.230408,387.308990 519.228577,387.316498 
	C564.060913,387.319977 608.893738,387.258148 653.725098,387.475525 
	C658.667358,387.499451 659.953430,386.106140 659.939331,381.296906 
	C659.787781,329.464996 659.770508,277.632202 659.960632,225.800552 
	C659.978882,220.821625 658.445435,219.723511 653.754883,219.736252 
	C599.589600,219.883499 545.423828,219.829498 491.258179,219.830231 
	C403.426514,219.831451 315.594849,219.833267 227.763168,219.836029 
	C219.613403,219.836288 219.613831,219.840393 219.615082,211.915253 
	C219.616943,200.248810 219.625854,188.582367 219.616714,176.915924 
	C219.610992,169.598602 219.598633,169.601181 226.840195,169.601212 
	C369.170837,169.601807 511.501526,169.579483 653.832092,169.698532 
	C658.600830,169.702530 660.060547,168.511642 659.966797,163.594833 
	C659.646057,146.767929 659.836792,129.931137 659.846191,113.098129 
	C659.849792,106.650116 659.866760,106.648941 653.250854,106.648941 
	C482.587402,106.648918 311.923950,106.649162 141.260513,106.649261 
	C139.260559,106.649261 137.252884,106.759270 135.262405,106.621544 
	C132.092865,106.402237 131.071487,107.975746 131.407135,111.798882 
z"/>
<path fill="#FCFCFC" opacity="1.000000" stroke="none" 
	d="
M131.403214,111.329536 
	C131.071487,107.975746 132.092865,106.402237 135.262405,106.621544 
	C137.252884,106.759270 139.260559,106.649261 141.260513,106.649261 
	C311.923950,106.649162 482.587402,106.648918 653.250854,106.648941 
	C659.866760,106.648941 659.849792,106.650116 659.846191,113.098129 
	C659.836792,129.931137 659.646057,146.767929 659.966797,163.594833 
	C660.060547,168.511642 658.600830,169.702530 653.832092,169.698532 
	C511.501526,169.579483 369.170837,169.601807 226.840195,169.601212 
	C219.598633,169.601181 219.610992,169.598602 219.616714,176.915924 
	C219.625854,188.582367 219.616943,200.248810 219.615082,211.915253 
	C219.613831,219.840393 219.613403,219.836288 227.763168,219.836029 
	C315.594849,219.833267 403.426514,219.831451 491.258179,219.830231 
	C545.423828,219.829498 599.589600,219.883499 653.754883,219.736252 
	C658.445435,219.723511 659.978882,220.821625 659.960632,225.800552 
	C659.770508,277.632202 659.787781,329.464996 659.939331,381.296906 
	C659.953430,386.106140 658.667358,387.499451 653.725098,387.475525 
	C608.893738,387.258148 564.060913,387.319977 519.228577,387.316498 
	C422.230408,387.308990 325.232269,387.310852 228.234116,387.309967 
	C219.967468,387.309875 219.604858,387.700836 219.613770,396.124969 
	C219.626450,408.124725 219.780991,420.128143 219.519943,432.122253 
	C219.427963,436.348267 220.946533,437.934845 224.971756,437.681580 
	C226.630035,437.577240 228.302963,437.725250 229.969223,437.725281 
	C370.133240,437.728241 510.297272,437.728180 650.461304,437.727112 
	C659.854309,437.727051 659.842957,437.722565 659.842896,447.089569 
	C659.842102,533.087952 659.808594,619.086365 659.950989,705.084534 
	C659.958557,709.659241 658.493713,710.637390 654.238525,710.608582 
	C628.573547,710.434265 602.906067,710.425659 577.241272,710.614746 
	C572.863831,710.646973 571.583557,709.453735 571.614197,704.996338 
	C571.818909,675.164978 571.656616,645.331116 571.820801,615.499268 
	C571.844055,611.265015 570.910400,609.712952 566.302673,609.768616 
	C545.139465,610.024353 523.971497,609.866394 502.805267,609.893494 
	C496.713318,609.901306 496.311127,610.298279 496.306885,616.465454 
	C496.286621,645.964905 496.207703,675.465027 496.413116,704.963074 
	C496.444031,709.404663 495.209351,710.671997 490.808868,710.615051 
	C473.312103,710.388611 455.809479,710.409851 438.312012,710.606018 
	C434.305298,710.651001 433.231293,709.393921 433.252075,705.463013 
	C433.410797,675.464417 433.274872,645.464172 433.447632,615.465698 
	C433.472351,611.177246 432.426880,609.719543 427.889862,609.772888 
	C407.059784,610.017761 386.225250,609.876587 365.392303,609.885742 
	C358.061676,609.888977 357.965027,609.989258 357.964447,617.504578 
	C357.962250,646.670654 357.871094,675.837463 358.077759,705.002136 
	C358.109375,709.463989 356.829071,710.672241 352.456512,710.615417 
	C334.959808,710.387939 317.457092,710.408020 299.959686,710.606995 
	C295.947479,710.652649 294.888153,709.381470 294.908447,705.467834 
	C295.063782,675.469238 294.930939,645.468994 295.100830,615.470520 
	C295.125031,611.195923 294.128784,609.713501 289.548950,609.770081 
	C268.719208,610.027344 247.884491,609.877869 227.051559,609.885620 
	C219.711227,609.888306 219.614120,609.995361 219.614578,617.510010 
	C219.616364,646.676086 219.525208,675.842896 219.730423,705.007568 
	C219.761902,709.482361 218.440384,710.644775 214.083603,710.613403 
	C188.252090,710.427856 162.417999,710.435852 136.586288,710.607300 
	C132.336578,710.635437 131.311569,709.233948 131.322235,705.146851 
	C131.454575,654.481506 131.498398,603.815308 131.283630,553.150513 
	C131.261520,547.936523 132.750458,546.815674 137.718643,546.820251 
	C279.882507,546.949890 422.046509,546.924805 564.210510,546.924622 
	C571.745178,546.924561 571.732056,546.923462 571.728699,539.427795 
	C571.723145,526.928040 571.586670,514.425415 571.825562,501.930115 
	C571.905212,497.760742 570.628906,496.581573 566.430542,496.584778 
	C423.766632,496.693939 281.102661,496.678741 138.438705,496.682648 
	C131.388367,496.682861 131.410080,496.687714 131.410828,489.681488 
	C131.416260,438.349121 131.414093,387.016754 131.409042,335.684387 
	C131.408386,329.087860 131.394287,329.102295 138.070404,329.102753 
	C280.901031,329.112396 423.731628,329.103363 566.562195,329.209534 
	C570.269897,329.212280 571.765137,328.093811 571.756226,324.492828 
	C571.722046,310.660095 571.720459,296.827087 571.779053,282.994476 
	C571.791321,280.102997 570.759338,278.611603 567.679321,278.788971 
	C565.353394,278.922913 563.014282,278.835327 560.681030,278.835449 
	C419.350372,278.842224 278.019714,278.819611 136.689209,278.967072 
	C131.565308,278.972412 131.397232,276.361786 131.399017,272.776276 
	C131.411240,248.276749 131.415161,223.777206 131.415558,199.277679 
	C131.416016,170.118073 131.410217,140.958481 131.403214,111.329536 
z"/>
</svg>