<svg version="1.1" id="Layer_1" xmlns="http://www.w3.org/2000/svg" xmlns:xlink="http://www.w3.org/1999/xlink" x="0px" y="0px"
	 width="100%" viewBox="0 0 1100 1100" enable-background="new 0 0 1100 1100" xml:space="preserve">
<path fill="#212121" opacity="0.000000" stroke="none" 
	d="
M636.000000,1101.000000 
	C424.023956,1101.000000 212.547928,1101.000000 1.035947,1101.000000 
	C1.035947,734.398865 1.035947,367.797699 1.035947,1.098267 
	C367.559601,1.098267 734.119202,1.098267 1100.839355,1.098267 
	C1100.839355,367.666595 1100.839355,734.333313 1100.839355,1101.000000 
	C946.130615,1101.000000 791.315308,1101.000000 636.000000,1101.000000 
M312.498901,430.000061 
	C240.685120,430.000061 168.871338,429.999542 97.057556,430.000824 
	C90.406013,430.000946 88.000732,432.439880 88.000656,439.178314 
	C87.999779,515.490906 87.999374,591.803528 88.001411,668.116150 
	C88.001579,674.467651 89.511887,675.998169 95.787651,675.998413 
	C172.600128,676.000793 249.412613,676.000916 326.225098,675.998413 
	C332.486511,675.998230 333.998077,674.460510 333.998596,668.103455 
	C334.001465,634.445923 333.999939,600.788391 333.999939,567.130859 
	C333.999939,523.809265 334.003662,480.487701 333.995117,437.166107 
	C333.994080,431.899445 332.154877,430.032684 326.994202,430.005096 
	C322.495544,429.981079 317.996674,430.000092 312.498901,430.000061 
M459.444000,495.523590 
	C459.444000,523.261902 459.444000,551.000244 459.444000,578.731018 
	C466.259308,578.731018 472.364960,578.731018 478.895325,578.731018 
	C478.895325,571.919678 478.895325,565.322815 478.895325,558.843384 
	C483.542511,557.542908 486.859100,558.579590 489.938385,561.926453 
	C494.667145,567.066101 499.817139,571.822693 504.873993,576.652222 
	C505.892181,577.624634 507.275879,578.820435 508.518677,578.852783 
	C516.257996,579.054443 524.005188,578.954407 532.792236,578.954407 
	C524.501038,570.633240 516.976379,563.081299 509.226288,555.303162 
	C510.915009,554.270508 512.195129,553.528687 513.434204,552.723816 
	C526.257935,544.393921 532.823120,528.529541 529.815552,513.169800 
	C527.010437,498.844543 515.859070,485.860870 502.137177,484.438202 
	C488.214783,482.994720 474.026123,484.119476 459.444061,484.119476 
	C459.444061,487.275696 459.444061,490.905975 459.444000,495.523590 
M770.630432,578.956055 
	C774.715637,578.956055 778.800842,578.956055 783.007080,578.956055 
	C783.007080,576.426636 782.811157,574.572937 783.052063,572.777893 
	C783.434631,569.926636 783.317688,566.573547 784.811279,564.389587 
	C788.930969,558.365173 793.775879,552.836670 798.612915,546.761658 
	C806.398621,556.553650 814.000488,566.189148 821.716675,575.732239 
	C822.774231,577.040039 824.364929,578.746643 825.769653,578.805054 
	C833.153259,579.112122 840.556396,578.948730 849.012573,578.948730 
	C835.912231,562.504578 823.524597,546.955078 810.958252,531.181274 
	C823.457031,515.416382 835.890869,499.733429 849.032288,483.158051 
	C841.240601,483.158051 834.638062,482.913757 828.072510,483.299835 
	C825.973633,483.423248 823.358337,484.710358 822.026184,486.327423 
	C812.821594,497.500671 803.899841,508.906769 794.874084,520.227600 
	C791.208679,524.825073 787.510742,529.396667 782.959961,535.059814 
	C782.959961,516.953064 782.959961,500.255463 782.959961,483.362671 
	C776.398376,483.362671 770.302734,483.362671 763.971069,483.362671 
	C763.971069,515.224121 763.971069,546.960266 763.971069,578.956055 
	C766.036438,578.956055 767.857483,578.956055 770.630432,578.956055 
M622.613281,501.013428 
	C622.613281,495.226654 622.613281,489.439850 622.613281,483.403625 
	C601.392944,483.403625 580.683289,483.403625 559.785034,483.403625 
	C559.785034,515.330627 559.785034,547.025513 559.785034,578.607788 
	C580.854919,578.607788 601.574829,578.607788 622.264404,578.607788 
	C622.264404,572.020264 622.264404,565.786072 622.264404,559.098389 
	C607.670898,559.098389 593.443970,559.098389 579.214783,559.098389 
	C579.214783,552.554932 579.214783,546.483154 579.214783,539.973755 
	C593.212402,539.973755 606.940369,539.973755 620.637024,539.973755 
	C620.637024,533.806580 620.637024,528.091431 620.637024,521.915588 
	C606.574158,521.915588 592.851990,521.915588 579.213257,521.915588 
	C579.213257,515.359253 579.213257,509.277161 579.213257,502.893616 
	C592.110962,502.893616 604.735718,502.930206 617.359802,502.850311 
	C619.061340,502.839569 620.759216,502.242798 622.613281,501.013428 
M729.927673,554.458069 
	C721.225708,530.656616 712.523804,506.855164 703.854126,483.141998 
	C698.111816,483.141998 692.931458,483.413177 687.795715,483.050964 
	C684.095093,482.789978 682.760254,484.272583 681.568481,487.591064 
	C671.185974,516.500793 660.581177,545.330627 650.063782,574.192017 
	C649.540222,575.628723 649.214783,577.137695 648.699890,578.956421 
	C654.856079,578.956421 660.358398,579.159180 665.827332,578.821899 
	C667.295532,578.731384 669.347900,577.303894 669.950562,575.960266 
	C671.984192,571.426270 673.581116,566.685364 675.153320,561.959839 
	C675.983032,559.465881 677.095886,558.183228 680.063354,558.254761 
	C689.053345,558.471619 698.054932,558.462952 707.045532,558.258789 
	C709.969421,558.192383 711.123413,559.393066 711.974060,561.922485 
	C713.877136,567.580933 716.028137,573.156067 718.094666,578.810120 
	C724.925232,578.810120 731.551331,578.810120 738.737549,578.810120 
	C735.790771,570.742493 732.955139,562.979004 729.927673,554.458069 
M874.653625,515.555420 
	C877.640930,527.804138 887.355225,532.739746 897.830078,536.801453 
	C902.310486,538.538757 906.924194,539.946533 911.348145,541.810608 
	C915.412781,543.523376 918.413696,546.310364 918.031433,551.262390 
	C917.646362,556.250183 914.522339,559.049255 910.045898,560.355591 
	C903.337646,562.313232 896.852783,561.169678 890.711487,558.112366 
	C887.217712,556.373047 883.887512,554.305176 880.348450,552.309082 
	C877.040466,557.952271 873.875305,563.351746 870.754944,568.674927 
	C881.397827,578.116638 897.200562,582.895325 910.424316,580.859985 
	C929.804260,577.877075 942.341614,559.639954 936.889099,541.963135 
	C933.292236,530.302246 923.780518,524.956177 913.205322,520.952942 
	C908.251587,519.077759 903.094177,517.525330 898.522949,514.949951 
	C896.375977,513.740356 893.951477,510.243317 894.259216,508.169800 
	C894.632996,505.651611 897.377563,502.906982 899.809265,501.450287 
	C901.857300,500.223450 905.054016,500.060303 907.514099,500.556793 
	C912.306519,501.523956 916.939209,503.282715 921.957520,504.810883 
	C925.256104,500.029785 928.721619,495.006683 933.064331,488.712097 
	C925.388184,486.053497 918.605408,482.555267 911.450439,481.435883 
	C887.422485,477.676697 870.338013,495.585175 874.653625,515.555420 
M432.211945,491.604065 
	C432.211945,488.846619 432.211945,486.089142 432.211945,483.510040 
	C410.813263,483.510040 390.087036,483.510040 369.394836,483.510040 
	C369.394836,515.449402 369.394836,547.014771 369.394836,578.621338 
	C375.894531,578.621338 382.104431,578.621338 388.780396,578.621338 
	C388.780396,566.047424 388.780396,553.804565 388.780396,541.028259 
	C403.116943,541.028259 416.991730,541.028259 430.891724,541.028259 
	C430.891724,534.356079 430.891724,528.233154 430.891724,521.598267 
	C416.837555,521.598267 402.945465,521.598267 388.880676,521.598267 
	C388.880676,515.168579 388.880676,509.253296 388.880676,502.910583 
	C403.339966,502.910583 417.583282,502.910583 432.211945,502.910583 
	C432.211945,499.178314 432.211945,495.864105 432.211945,491.604065 
M960.337891,571.730103 
	C963.489441,574.061218 962.758301,571.149414 962.785767,569.789978 
	C962.883179,564.964355 962.823730,560.135437 962.823730,553.910583 
	C968.420715,561.308228 973.038330,567.411377 978.051453,574.037292 
	C980.206787,567.891174 979.788208,552.231506 977.043030,548.956116 
	C977.043030,555.627380 977.043030,561.368591 977.043030,568.276672 
	C971.018921,561.477051 967.238831,554.575562 961.741943,549.234802 
	C961.244141,549.516846 960.746399,549.798950 960.248596,550.080994 
	C960.248596,557.005371 960.248596,563.929688 960.337891,571.730103 
M992.773682,557.642029 
	C996.435059,550.215576 1002.768494,551.177917 1009.685669,553.077393 
	C1005.939026,548.068176 998.632568,547.978210 993.670166,552.222168 
	C988.499756,556.643982 988.289001,565.204407 993.234192,569.926636 
	C997.875549,574.358704 1005.617065,574.517151 1008.969971,570.585388 
	C1005.170105,570.325684 1000.807129,570.918701 997.176819,569.557678 
	C992.455811,567.787598 991.159485,563.293579 992.773682,557.642029 
M947.961121,558.542053 
	C947.961121,563.294067 947.961121,568.046082 947.961121,572.798157 
	C948.451050,572.770142 948.940918,572.742126 949.430847,572.714172 
	C949.430847,565.132629 949.430847,557.551147 949.430847,549.969604 
	C948.940918,549.962524 948.451050,549.955444 947.961121,549.948364 
	C947.961121,552.487000 947.961121,555.025696 947.961121,558.542053 
z"/>
<path fill="#FFFFFF" opacity="1.000000" stroke="none" 
	d="
M312.998413,430.000061 
	C317.996674,430.000092 322.495544,429.981079 326.994202,430.005096 
	C332.154877,430.032684 333.994080,431.899445 333.995117,437.166107 
	C334.003662,480.487701 333.999939,523.809265 333.999939,567.130859 
	C333.999939,600.788391 334.001465,634.445923 333.998596,668.103455 
	C333.998077,674.460510 332.486511,675.998230 326.225098,675.998413 
	C249.412613,676.000916 172.600128,676.000793 95.787651,675.998413 
	C89.511887,675.998169 88.001579,674.467651 88.001411,668.116150 
	C87.999374,591.803528 87.999779,515.490906 88.000656,439.178314 
	C88.000732,432.439880 90.406013,430.000946 97.057556,430.000824 
	C168.871338,429.999542 240.685120,430.000061 312.998413,430.000061 
M322.003662,511.500000 
	C322.003662,488.407654 322.003662,465.315277 322.003662,442.293823 
	C247.681213,442.293823 173.954163,442.293823 100.293793,442.293823 
	C100.293793,516.318726 100.293793,590.045776 100.293793,663.706177 
	C174.318710,663.706177 248.045761,663.706177 322.003662,663.706177 
	C322.003662,613.106079 322.003662,562.803040 322.003662,511.500000 
z"/>
<path fill="#FBFBFB" opacity="1.000000" stroke="none" 
	d="
M459.444031,495.029907 
	C459.444061,490.905975 459.444061,487.275696 459.444061,484.119476 
	C474.026123,484.119476 488.214783,482.994720 502.137177,484.438202 
	C515.859070,485.860870 527.010437,498.844543 529.815552,513.169800 
	C532.823120,528.529541 526.257935,544.393921 513.434204,552.723816 
	C512.195129,553.528687 510.915009,554.270508 509.226288,555.303162 
	C516.976379,563.081299 524.501038,570.633240 532.792236,578.954407 
	C524.005188,578.954407 516.257996,579.054443 508.518677,578.852783 
	C507.275879,578.820435 505.892181,577.624634 504.873993,576.652222 
	C499.817139,571.822693 494.667145,567.066101 489.938385,561.926453 
	C486.859100,558.579590 483.542511,557.542908 478.895325,558.843384 
	C478.895325,565.322815 478.895325,571.919678 478.895325,578.731018 
	C472.364960,578.731018 466.259308,578.731018 459.444000,578.731018 
	C459.444000,551.000244 459.444000,523.261902 459.444031,495.029907 
M492.342316,502.697479 
	C487.944000,502.697479 483.545654,502.697479 479.151428,502.697479 
	C479.151428,515.122253 479.151428,526.845154 479.151428,538.976501 
	C483.639191,538.976501 487.917755,538.994934 492.196075,538.972961 
	C503.428589,538.915222 510.629486,532.157410 511.088318,521.591614 
	C511.530426,511.410767 504.082642,502.070190 492.342316,502.697479 
z"/>
<path fill="#FDFDFD" opacity="1.000000" stroke="none" 
	d="
M770.154480,578.956055 
	C767.857483,578.956055 766.036438,578.956055 763.971069,578.956055 
	C763.971069,546.960266 763.971069,515.224121 763.971069,483.362671 
	C770.302734,483.362671 776.398376,483.362671 782.959961,483.362671 
	C782.959961,500.255463 782.959961,516.953064 782.959961,535.059814 
	C787.510742,529.396667 791.208679,524.825073 794.874084,520.227600 
	C803.899841,508.906769 812.821594,497.500671 822.026184,486.327423 
	C823.358337,484.710358 825.973633,483.423248 828.072510,483.299835 
	C834.638062,482.913757 841.240601,483.158051 849.032288,483.158051 
	C835.890869,499.733429 823.457031,515.416382 810.958252,531.181274 
	C823.524597,546.955078 835.912231,562.504578 849.012573,578.948730 
	C840.556396,578.948730 833.153259,579.112122 825.769653,578.805054 
	C824.364929,578.746643 822.774231,577.040039 821.716675,575.732239 
	C814.000488,566.189148 806.398621,556.553650 798.612915,546.761658 
	C793.775879,552.836670 788.930969,558.365173 784.811279,564.389587 
	C783.317688,566.573547 783.434631,569.926636 783.052063,572.777893 
	C782.811157,574.572937 783.007080,576.426636 783.007080,578.956055 
	C778.800842,578.956055 774.715637,578.956055 770.154480,578.956055 
z"/>
<path fill="#F9F9F9" opacity="1.000000" stroke="none" 
	d="
M622.536011,501.465393 
	C620.759216,502.242798 619.061340,502.839569 617.359802,502.850311 
	C604.735718,502.930206 592.110962,502.893616 579.213257,502.893616 
	C579.213257,509.277161 579.213257,515.359253 579.213257,521.915588 
	C592.851990,521.915588 606.574158,521.915588 620.637024,521.915588 
	C620.637024,528.091431 620.637024,533.806580 620.637024,539.973755 
	C606.940369,539.973755 593.212402,539.973755 579.214783,539.973755 
	C579.214783,546.483154 579.214783,552.554932 579.214783,559.098389 
	C593.443970,559.098389 607.670898,559.098389 622.264404,559.098389 
	C622.264404,565.786072 622.264404,572.020264 622.264404,578.607788 
	C601.574829,578.607788 580.854919,578.607788 559.785034,578.607788 
	C559.785034,547.025513 559.785034,515.330627 559.785034,483.403625 
	C580.683289,483.403625 601.392944,483.403625 622.613281,483.403625 
	C622.613281,489.439850 622.613281,495.226654 622.536011,501.465393 
z"/>
<path fill="#FDFDFD" opacity="1.000000" stroke="none" 
	d="
M730.023560,554.836792 
	C732.955139,562.979004 735.790771,570.742493 738.737549,578.810120 
	C731.551331,578.810120 724.925232,578.810120 718.094666,578.810120 
	C716.028137,573.156067 713.877136,567.580933 711.974060,561.922485 
	C711.123413,559.393066 709.969421,558.192383 707.045532,558.258789 
	C698.054932,558.462952 689.053345,558.471619 680.063354,558.254761 
	C677.095886,558.183228 675.983032,559.465881 675.153320,561.959839 
	C673.581116,566.685364 671.984192,571.426270 669.950562,575.960266 
	C669.347900,577.303894 667.295532,578.731384 665.827332,578.821899 
	C660.358398,579.159180 654.856079,578.956421 648.699890,578.956421 
	C649.214783,577.137695 649.540222,575.628723 650.063782,574.192017 
	C660.581177,545.330627 671.185974,516.500793 681.568481,487.591064 
	C682.760254,484.272583 684.095093,482.789978 687.795715,483.050964 
	C692.931458,483.413177 698.111816,483.141998 703.854126,483.141998 
	C712.523804,506.855164 721.225708,530.656616 730.023560,554.836792 
M685.741943,533.247253 
	C685.113403,535.008545 684.484863,536.769836 683.777771,538.751343 
	C690.599976,538.751343 696.700989,538.751343 703.432251,538.751343 
	C700.157288,529.741577 697.013245,521.091919 693.582886,511.654449 
	C690.842407,519.153870 688.406189,525.820740 685.741943,533.247253 
z"/>
<path fill="#FCFCFC" opacity="1.000000" stroke="none" 
	d="
M874.512512,515.149963 
	C870.338013,495.585175 887.422485,477.676697 911.450439,481.435883 
	C918.605408,482.555267 925.388184,486.053497 933.064331,488.712097 
	C928.721619,495.006683 925.256104,500.029785 921.957520,504.810883 
	C916.939209,503.282715 912.306519,501.523956 907.514099,500.556793 
	C905.054016,500.060303 901.857300,500.223450 899.809265,501.450287 
	C897.377563,502.906982 894.632996,505.651611 894.259216,508.169800 
	C893.951477,510.243317 896.375977,513.740356 898.522949,514.949951 
	C903.094177,517.525330 908.251587,519.077759 913.205322,520.952942 
	C923.780518,524.956177 933.292236,530.302246 936.889099,541.963135 
	C942.341614,559.639954 929.804260,577.877075 910.424316,580.859985 
	C897.200562,582.895325 881.397827,578.116638 870.754944,568.674927 
	C873.875305,563.351746 877.040466,557.952271 880.348450,552.309082 
	C883.887512,554.305176 887.217712,556.373047 890.711487,558.112366 
	C896.852783,561.169678 903.337646,562.313232 910.045898,560.355591 
	C914.522339,559.049255 917.646362,556.250183 918.031433,551.262390 
	C918.413696,546.310364 915.412781,543.523376 911.348145,541.810608 
	C906.924194,539.946533 902.310486,538.538757 897.830078,536.801453 
	C887.355225,532.739746 877.640930,527.804138 874.512512,515.149963 
z"/>
<path fill="#FBFBFB" opacity="1.000000" stroke="none" 
	d="
M432.211945,492.076996 
	C432.211945,495.864105 432.211945,499.178314 432.211945,502.910583 
	C417.583282,502.910583 403.339966,502.910583 388.880676,502.910583 
	C388.880676,509.253296 388.880676,515.168579 388.880676,521.598267 
	C402.945465,521.598267 416.837555,521.598267 430.891724,521.598267 
	C430.891724,528.233154 430.891724,534.356079 430.891724,541.028259 
	C416.991730,541.028259 403.116943,541.028259 388.780396,541.028259 
	C388.780396,553.804565 388.780396,566.047424 388.780396,578.621338 
	C382.104431,578.621338 375.894531,578.621338 369.394836,578.621338 
	C369.394836,547.014771 369.394836,515.449402 369.394836,483.510040 
	C390.087036,483.510040 410.813263,483.510040 432.211945,483.510040 
	C432.211945,486.089142 432.211945,488.846619 432.211945,492.076996 
z"/>
<path fill="#D9D9D9" opacity="1.000000" stroke="none" 
	d="
M960.293213,571.292114 
	C960.248596,563.929688 960.248596,557.005371 960.248596,550.080994 
	C960.746399,549.798950 961.244141,549.516846 961.741943,549.234802 
	C967.238831,554.575562 971.018921,561.477051 977.043030,568.276672 
	C977.043030,561.368591 977.043030,555.627380 977.043030,548.956116 
	C979.788208,552.231506 980.206787,567.891174 978.051453,574.037292 
	C973.038330,567.411377 968.420715,561.308228 962.823730,553.910583 
	C962.823730,560.135437 962.883179,564.964355 962.785767,569.789978 
	C962.758301,571.149414 963.489441,574.061218 960.293213,571.292114 
z"/>
<path fill="#E3E3E3" opacity="1.000000" stroke="none" 
	d="
M992.576294,557.984924 
	C991.159485,563.293579 992.455811,567.787598 997.176819,569.557678 
	C1000.807129,570.918701 1005.170105,570.325684 1008.969971,570.585388 
	C1005.617065,574.517151 997.875549,574.358704 993.234192,569.926636 
	C988.289001,565.204407 988.499756,556.643982 993.670166,552.222168 
	C998.632568,547.978210 1005.939026,548.068176 1009.685669,553.077393 
	C1002.768494,551.177917 996.435059,550.215576 992.576294,557.984924 
z"/>
<path fill="#FDFDFD" opacity="1.000000" stroke="none" 
	d="
M947.961121,558.053223 
	C947.961121,555.025696 947.961121,552.487000 947.961121,549.948364 
	C948.451050,549.955444 948.940918,549.962524 949.430847,549.969604 
	C949.430847,557.551147 949.430847,565.132629 949.430847,572.714172 
	C948.940918,572.742126 948.451050,572.770142 947.961121,572.798157 
	C947.961121,568.046082 947.961121,563.294067 947.961121,558.053223 
z"/>
<path fill="#232323" opacity="0.000000" stroke="none" 
	d="
M322.003662,512.000000 
	C322.003662,562.803040 322.003662,613.106079 322.003662,663.706177 
	C248.045761,663.706177 174.318710,663.706177 100.293793,663.706177 
	C100.293793,590.045776 100.293793,516.318726 100.293793,442.293823 
	C173.954163,442.293823 247.681213,442.293823 322.003662,442.293823 
	C322.003662,465.315277 322.003662,488.407654 322.003662,512.000000 
M236.321640,629.945801 
	C236.617920,628.233521 237.144730,626.524658 237.169891,624.808411 
	C237.269028,618.046997 237.210510,611.283203 237.210510,604.473083 
	C244.044510,604.473083 250.129440,604.473083 256.625916,604.473083 
	C256.625916,613.045715 256.625916,621.330261 256.625916,629.766724 
	C264.281403,629.766724 271.517090,629.766724 278.729309,629.766724 
	C278.729309,606.473572 278.729309,583.437622 278.729309,559.939575 
	C241.113007,559.939575 203.875641,559.939575 166.755768,559.939575 
	C166.755768,555.552673 166.755768,551.638123 166.755768,547.217407 
	C204.341293,547.217407 241.561157,547.217407 278.729370,547.217407 
	C278.729370,532.658630 278.729370,518.619568 278.729370,504.065033 
	C241.121765,504.065033 203.892960,504.065033 166.591705,504.065033 
	C166.591705,499.757599 166.591705,495.972717 166.591705,491.515137 
	C204.146194,491.515137 241.502975,491.515137 278.747162,491.515137 
	C278.747162,485.765106 278.747162,480.699127 278.747162,475.642273 
	C233.643158,475.642273 188.903442,475.642273 144.238953,475.642273 
	C144.238953,490.354095 144.238953,504.745117 144.238953,519.667114 
	C181.832306,519.667114 219.065262,519.667114 256.270264,519.667114 
	C256.270264,524.103149 256.270264,527.992188 256.270264,532.375488 
	C218.666260,532.375488 181.429504,532.375488 144.240952,532.375488 
	C144.240952,546.949646 144.240952,561.011292 144.240952,575.526123 
	C181.832993,575.526123 219.060867,575.526123 256.371460,575.526123 
	C256.371460,579.897949 256.371460,583.806763 256.371460,588.112549 
	C218.848114,588.112549 181.592545,588.112549 144.143341,588.112549 
	C144.143341,602.234680 144.143341,615.952942 144.143341,629.718323 
	C151.632797,629.718323 158.850830,629.718323 166.555267,629.718323 
	C166.555267,621.165466 166.555267,612.906006 166.555267,604.608643 
	C173.251450,604.608643 179.446060,604.608643 186.043640,604.608643 
	C186.043640,613.287109 186.043640,621.537048 186.043640,629.677307 
	C191.531052,629.677307 196.594803,629.677307 202.089630,629.677307 
	C202.089630,621.088745 202.089630,612.838257 202.089630,604.460510 
	C208.601898,604.460510 214.670319,604.460510 221.122894,604.460510 
	C221.122894,613.004150 221.122894,621.269348 221.122894,630.014771 
	C226.111740,630.014771 230.729691,630.014771 236.321640,629.945801 
z"/>
<path fill="#222222" opacity="0.000000" stroke="none" 
	d="
M492.814270,502.698608 
	C504.082642,502.070190 511.530426,511.410767 511.088318,521.591614 
	C510.629486,532.157410 503.428589,538.915222 492.196075,538.972961 
	C487.917755,538.994934 483.639191,538.976501 479.151428,538.976501 
	C479.151428,526.845154 479.151428,515.122253 479.151428,502.697479 
	C483.545654,502.697479 487.944000,502.697479 492.814270,502.698608 
z"/>
<path fill="#282828" opacity="0.000000" stroke="none" 
	d="
M685.855957,532.867432 
	C688.406189,525.820740 690.842407,519.153870 693.582886,511.654449 
	C697.013245,521.091919 700.157288,529.741577 703.432251,538.751343 
	C696.700989,538.751343 690.599976,538.751343 683.777771,538.751343 
	C684.484863,536.769836 685.113403,535.008545 685.855957,532.867432 
z"/>
<path fill="#FBFBFB" opacity="1.000000" stroke="none" 
	d="
M235.834625,629.980286 
	C230.729691,630.014771 226.111740,630.014771 221.122894,630.014771 
	C221.122894,621.269348 221.122894,613.004150 221.122894,604.460510 
	C214.670319,604.460510 208.601898,604.460510 202.089630,604.460510 
	C202.089630,612.838257 202.089630,621.088745 202.089630,629.677307 
	C196.594803,629.677307 191.531052,629.677307 186.043640,629.677307 
	C186.043640,621.537048 186.043640,613.287109 186.043640,604.608643 
	C179.446060,604.608643 173.251450,604.608643 166.555267,604.608643 
	C166.555267,612.906006 166.555267,621.165466 166.555267,629.718323 
	C158.850830,629.718323 151.632797,629.718323 144.143341,629.718323 
	C144.143341,615.952942 144.143341,602.234680 144.143341,588.112549 
	C181.592545,588.112549 218.848114,588.112549 256.371460,588.112549 
	C256.371460,583.806763 256.371460,579.897949 256.371460,575.526123 
	C219.060867,575.526123 181.832993,575.526123 144.240952,575.526123 
	C144.240952,561.011292 144.240952,546.949646 144.240952,532.375488 
	C181.429504,532.375488 218.666260,532.375488 256.270264,532.375488 
	C256.270264,527.992188 256.270264,524.103149 256.270264,519.667114 
	C219.065262,519.667114 181.832306,519.667114 144.238953,519.667114 
	C144.238953,504.745117 144.238953,490.354095 144.238953,475.642273 
	C188.903442,475.642273 233.643158,475.642273 278.747162,475.642273 
	C278.747162,480.699127 278.747162,485.765106 278.747162,491.515137 
	C241.502975,491.515137 204.146194,491.515137 166.591705,491.515137 
	C166.591705,495.972717 166.591705,499.757599 166.591705,504.065033 
	C203.892960,504.065033 241.121765,504.065033 278.729370,504.065033 
	C278.729370,518.619568 278.729370,532.658630 278.729370,547.217407 
	C241.561157,547.217407 204.341293,547.217407 166.755768,547.217407 
	C166.755768,551.638123 166.755768,555.552673 166.755768,559.939575 
	C203.875641,559.939575 241.113007,559.939575 278.729309,559.939575 
	C278.729309,583.437622 278.729309,606.473572 278.729309,629.766724 
	C271.517090,629.766724 264.281403,629.766724 256.625916,629.766724 
	C256.625916,621.330261 256.625916,613.045715 256.625916,604.473083 
	C250.129440,604.473083 244.044510,604.473083 237.210510,604.473083 
	C237.210510,611.283203 237.269028,618.046997 237.169891,624.808411 
	C237.144730,626.524658 236.617920,628.233521 235.834625,629.980286 
z"/>
</svg>