<svg version="1.1" id="Layer_1" xmlns="http://www.w3.org/2000/svg" xmlns:xlink="http://www.w3.org/1999/xlink" x="0px" y="0px"
	 width="100%" viewBox="0 0 936 246" enable-background="new 0 0 936 246" xml:space="preserve">
<path fill="#000000" opacity="0.000000" stroke="none" 
	d="
M245.000000,1.000001 
	C475.606842,1.000000 706.213684,1.000000 936.910278,1.000000 
	C936.910278,82.918831 936.910278,164.837784 936.910278,247.000000 
	C706.640869,247.000000 476.281708,247.000000 245.166046,246.662628 
	C245.273056,243.978760 246.886948,241.633621 246.891144,239.285599 
	C247.023712,164.962723 247.039307,90.639503 246.914001,16.316605 
	C246.905396,11.210010 245.666656,6.105488 245.000000,1.000001 
M427.377869,123.967667 
	C429.524872,122.202820 432.017456,120.724831 433.760620,118.624779 
	C442.534637,108.054398 446.372589,95.987846 442.916077,82.424042 
	C439.292664,68.205307 430.840240,57.167839 415.902985,55.344666 
	C401.600067,53.598923 386.916992,54.967838 372.203644,54.967838 
	C372.203644,86.137642 372.203644,117.875793 372.203644,149.792099 
	C378.812958,149.792099 385.218048,149.792099 392.003418,149.792099 
	C392.003418,143.167358 392.003418,136.738312 392.003418,128.920639 
	C395.463409,130.250259 398.652283,130.683105 400.741058,132.430740 
	C406.430603,137.191071 411.643707,142.519455 417.075195,147.591003 
	C418.012482,148.466187 419.080536,149.850159 420.112701,149.872574 
	C428.636780,150.057755 437.166595,149.977310 446.929413,149.977310 
	C438.358154,141.537598 430.772552,134.068390 423.228729,126.640327 
	C424.427551,125.727158 425.542694,124.877708 427.377869,123.967667 
M676.000000,65.517105 
	C676.000000,93.602028 676.000000,121.686943 676.000000,149.720581 
	C683.304626,149.720581 690.044800,149.720581 697.550781,149.720581 
	C693.102844,135.178284 705.226990,128.564240 711.564575,118.475533 
	C717.893555,126.640610 723.892334,134.520889 730.062805,142.264328 
	C732.251770,145.011307 734.629883,149.311691 737.317688,149.637695 
	C745.402527,150.618347 753.682251,149.991180 762.928284,149.991180 
	C749.658325,133.347305 737.147156,117.655251 724.779053,102.142540 
	C737.492188,86.107727 749.866699,70.499916 762.943604,54.006283 
	C753.724976,54.006283 745.648193,53.980377 737.572388,54.051697 
	C736.867920,54.057911 735.942444,54.523468 735.501221,55.078850 
	C726.304321,66.655441 717.168457,78.280464 708.007019,89.885239 
	C704.575684,94.231812 701.110107,98.551376 696.764526,104.007820 
	C696.764526,86.345688 696.764526,70.271881 696.764526,54.294426 
	C689.671204,54.294426 682.932495,54.294426 676.000000,54.294426 
	C676.000000,57.898006 676.000000,61.210548 676.000000,65.517105 
M478.576721,150.000000 
	C497.662842,150.000000 516.748962,150.000000 535.686523,150.000000 
	C535.686523,142.967209 535.686523,136.559677 535.686523,129.769653 
	C520.968689,129.769653 506.561340,129.769653 492.316589,129.769653 
	C492.316589,123.627449 492.316589,117.887619 492.316589,111.763123 
	C506.371185,111.763123 520.112183,111.763123 533.680176,111.763123 
	C533.680176,105.287132 533.680176,99.212852 533.680176,92.756630 
	C519.622192,92.756630 505.881226,92.756630 492.323120,92.756630 
	C492.323120,86.280472 492.323120,80.205452 492.323120,73.750267 
	C507.050842,73.750267 521.458130,73.750267 535.673828,73.750267 
	C535.673828,66.941185 535.673828,60.532814 535.673828,54.324715 
	C514.277344,54.324715 493.208130,54.324715 472.320862,54.324715 
	C472.320862,86.383011 472.320862,118.115845 472.320862,150.000000 
	C474.293945,150.000000 475.946838,150.000000 478.576721,150.000000 
M592.966492,62.276985 
	C592.308716,63.742615 591.561462,65.175240 591.007141,66.679001 
	C585.806641,80.786247 580.595215,94.889748 575.474609,109.026077 
	C570.580505,122.537491 565.790649,136.086670 560.818909,149.999863 
	C567.552307,149.999863 573.870972,150.155365 580.169983,149.872269 
	C581.472839,149.813721 583.319885,148.388428 583.854980,147.138748 
	C585.804932,142.584183 587.129150,137.761566 589.083191,133.209045 
	C589.664612,131.854401 591.512573,130.179016 592.823608,130.140884 
	C601.971741,129.874725 611.132996,129.914413 620.285095,130.100693 
	C621.534424,130.126129 623.424561,131.228149 623.878967,132.310104 
	C626.284180,138.036499 628.324890,143.915985 630.523865,149.828003 
	C637.565002,149.828003 644.685608,149.828003 652.403748,149.828003 
	C640.681091,117.697487 629.083557,85.909950 617.441406,54.000000 
	C612.714294,54.000000 608.010925,54.430984 603.420837,53.894001 
	C597.294006,53.177250 593.802368,55.259415 592.966492,62.276985 
M796.589539,101.057297 
	C798.786926,102.377426 800.863220,103.988350 803.204529,104.962692 
	C809.978699,107.781738 816.845825,110.380127 823.703369,112.994659 
	C827.642334,114.496422 830.805115,117.502838 830.660278,121.316788 
	C830.551270,124.186195 828.069214,128.216019 825.535400,129.445160 
	C821.875610,131.220505 816.911194,132.177002 813.045227,131.242157 
	C806.322998,129.616638 800.014954,126.278587 792.779541,123.353851 
	C789.670898,128.523071 786.158020,134.364487 782.286682,140.801865 
	C788.122986,143.794281 793.193176,146.928558 798.650146,149.083359 
	C810.969727,153.948044 823.143738,154.696793 835.535400,148.197800 
	C850.343018,140.431702 857.736816,119.058762 846.068970,104.855698 
	C842.060852,99.976593 836.190857,96.291168 830.551880,93.185539 
	C825.296631,90.291260 818.988953,89.348488 813.598328,86.642563 
	C810.881714,85.278915 807.227661,81.664719 807.500427,79.512032 
	C807.837219,76.854332 811.739685,74.570557 814.280151,72.327637 
	C814.876282,71.801346 816.241882,71.843124 817.164734,72.039940 
	C822.896606,73.262436 828.603088,74.603577 835.339600,76.138039 
	C838.415527,71.799568 842.301392,66.318764 846.559265,60.313202 
	C842.633911,58.408226 839.124756,56.485394 835.450012,54.961979 
	C823.032837,49.814320 810.723633,49.329990 799.111755,57.037590 
	C789.567139,63.373043 784.080017,73.570648 786.994202,86.476654 
	C788.308228,92.296333 791.614868,96.781532 796.589539,101.057297 
M335.478455,74.000000 
	C338.916931,74.000000 342.355438,74.000000 345.717468,74.000000 
	C345.717468,67.031479 345.717468,60.626530 345.717468,54.280228 
	C324.365875,54.280228 303.298004,54.280228 282.274475,54.280228 
	C282.274475,86.293304 282.274475,118.025383 282.274475,149.723160 
	C288.956757,149.723160 295.361237,149.723160 302.157471,149.723160 
	C302.157471,137.376541 302.157471,125.301697 302.157471,112.842072 
	C316.624054,112.842072 330.697723,112.842072 344.720459,112.842072 
	C344.720459,105.703827 344.720459,98.966507 344.720459,91.837936 
	C330.371490,91.837936 316.297699,91.837936 302.281891,91.837936 
	C302.281891,85.698402 302.281891,79.960625 302.281891,74.000000 
	C313.202515,74.000000 323.842712,74.000000 335.478455,74.000000 
M873.000000,124.747406 
	C873.000000,129.897842 872.893066,135.052094 873.075745,140.196030 
	C873.121094,141.474396 874.103333,142.719498 874.654968,143.979874 
	C875.103271,142.782028 875.894409,141.596603 875.938354,140.384079 
	C876.095764,136.044235 876.000000,131.695175 876.000000,126.093056 
	C880.578125,132.116364 884.194397,137.063461 888.049744,141.816666 
	C889.041077,143.038773 890.785522,143.649994 892.999878,145.062256 
	C892.999878,136.724060 893.062012,129.760223 892.926270,122.800240 
	C892.907959,121.863701 891.892883,120.946602 891.339294,120.020493 
	C890.892883,121.053970 890.090759,122.077293 890.060913,123.122673 
	C889.923096,127.953568 890.000061,132.790604 890.000061,138.337845 
	C884.001160,131.802979 880.695557,124.134613 873.000000,118.910530 
	C873.000000,121.511589 873.000000,122.665283 873.000000,124.747406 
M918.524231,140.999573 
	C914.350342,143.036926 910.880005,141.075119 908.122009,138.426376 
	C905.564453,135.970093 904.312439,132.616409 906.013855,128.880615 
	C908.143372,124.204994 913.061768,122.340279 918.699036,123.859550 
	C919.955078,124.198067 921.457886,123.620560 922.847107,123.464813 
	C921.830444,122.403923 920.829224,120.458122 919.794434,120.440163 
	C915.959839,120.373581 911.635559,119.935112 908.373291,121.484680 
	C901.790527,124.611488 900.270142,131.774429 903.783386,138.293167 
	C907.131775,144.506058 914.093140,146.737534 920.780212,143.577942 
	C921.711060,143.138138 922.249695,141.868332 922.969910,140.982742 
	C921.762085,140.975250 920.554260,140.967758 918.524231,140.999573 
M863.999817,122.741768 
	C864.322144,119.006874 862.218201,119.875710 860.000183,120.419250 
	C860.000183,127.477379 860.157349,134.255661 859.934937,141.021484 
	C859.821289,144.476654 861.428955,144.269272 864.000000,143.678284 
	C864.000000,136.894135 864.000000,130.299515 863.999817,122.741768 
z"/>
<path fill="#FFFFFF" opacity="1.000000" stroke="none" 
	d="
M244.531342,1.000001 
	C245.666656,6.105488 246.905396,11.210010 246.914001,16.316605 
	C247.039307,90.639503 247.023712,164.962723 246.891144,239.285599 
	C246.886948,241.633621 245.273056,243.978760 244.704803,246.662628 
	C163.715164,247.000000 82.430328,247.000000 1.072747,247.000000 
	C1.072747,165.097443 1.072747,83.194817 1.072747,1.000000 
	C82.020660,1.000000 163.041672,1.000000 244.531342,1.000001 
M36.500031,235.000000 
	C102.592728,235.000000 168.685425,235.000000 234.714996,235.000000 
	C234.714996,160.693985 234.714996,86.958298 234.714996,13.285004 
	C160.693970,13.285004 86.958282,13.285004 13.285013,13.285004 
	C13.285013,87.306053 13.285013,161.041733 13.285013,235.000000 
	C20.879047,235.000000 28.189548,235.000000 36.500031,235.000000 
z"/>
<path fill="#FFFFFF" opacity="1.000000" stroke="none" 
	d="
M427.017853,123.997971 
	C425.542694,124.877708 424.427551,125.727158 423.228729,126.640327 
	C430.772552,134.068390 438.358154,141.537598 446.929413,149.977310 
	C437.166595,149.977310 428.636780,150.057755 420.112701,149.872574 
	C419.080536,149.850159 418.012482,148.466187 417.075195,147.591003 
	C411.643707,142.519455 406.430603,137.191071 400.741058,132.430740 
	C398.652283,130.683105 395.463409,130.250259 392.003418,128.920639 
	C392.003418,136.738312 392.003418,143.167358 392.003418,149.792099 
	C385.218048,149.792099 378.812958,149.792099 372.203644,149.792099 
	C372.203644,117.875793 372.203644,86.137642 372.203644,54.967838 
	C386.916992,54.967838 401.600067,53.598923 415.902985,55.344666 
	C430.840240,57.167839 439.292664,68.205307 442.916077,82.424042 
	C446.372589,95.987846 442.534637,108.054398 433.760620,118.624779 
	C432.017456,120.724831 429.524872,122.202820 427.017853,123.997971 
M417.410950,77.943115 
	C409.700989,71.362305 400.666504,74.958321 392.290649,73.908150 
	C392.290649,86.035767 392.290649,97.415642 392.290649,108.851685 
	C398.866364,108.851685 405.263794,109.583633 411.406128,108.645546 
	C417.531860,107.709999 421.157562,102.604958 422.862427,96.956573 
	C424.948639,90.044693 423.393768,83.616287 417.410950,77.943115 
z"/>
<path fill="#FFFFFF" opacity="1.000000" stroke="none" 
	d="
M676.000000,65.020096 
	C676.000000,61.210548 676.000000,57.898006 676.000000,54.294426 
	C682.932495,54.294426 689.671204,54.294426 696.764526,54.294426 
	C696.764526,70.271881 696.764526,86.345688 696.764526,104.007820 
	C701.110107,98.551376 704.575684,94.231812 708.007019,89.885239 
	C717.168457,78.280464 726.304321,66.655441 735.501221,55.078850 
	C735.942444,54.523468 736.867920,54.057911 737.572388,54.051697 
	C745.648193,53.980377 753.724976,54.006283 762.943604,54.006283 
	C749.866699,70.499916 737.492188,86.107727 724.779053,102.142540 
	C737.147156,117.655251 749.658325,133.347305 762.928284,149.991180 
	C753.682251,149.991180 745.402527,150.618347 737.317688,149.637695 
	C734.629883,149.311691 732.251770,145.011307 730.062805,142.264328 
	C723.892334,134.520889 717.893555,126.640610 711.564575,118.475533 
	C705.226990,128.564240 693.102844,135.178284 697.550781,149.720581 
	C690.044800,149.720581 683.304626,149.720581 676.000000,149.720581 
	C676.000000,121.686943 676.000000,93.602028 676.000000,65.020096 
z"/>
<path fill="#FFFFFF" opacity="1.000000" stroke="none" 
	d="
M478.088226,150.000000 
	C475.946838,150.000000 474.293945,150.000000 472.320862,150.000000 
	C472.320862,118.115845 472.320862,86.383011 472.320862,54.324715 
	C493.208130,54.324715 514.277344,54.324715 535.673828,54.324715 
	C535.673828,60.532814 535.673828,66.941185 535.673828,73.750267 
	C521.458130,73.750267 507.050842,73.750267 492.323120,73.750267 
	C492.323120,80.205452 492.323120,86.280472 492.323120,92.756630 
	C505.881226,92.756630 519.622192,92.756630 533.680176,92.756630 
	C533.680176,99.212852 533.680176,105.287132 533.680176,111.763123 
	C520.112183,111.763123 506.371185,111.763123 492.316589,111.763123 
	C492.316589,117.887619 492.316589,123.627449 492.316589,129.769653 
	C506.561340,129.769653 520.968689,129.769653 535.686523,129.769653 
	C535.686523,136.559677 535.686523,142.967209 535.686523,150.000000 
	C516.748962,150.000000 497.662842,150.000000 478.088226,150.000000 
z"/>
<path fill="#FFFFFF" opacity="1.000000" stroke="none" 
	d="
M592.983459,61.871754 
	C593.802368,55.259415 597.294006,53.177250 603.420837,53.894001 
	C608.010925,54.430984 612.714294,54.000000 617.441406,54.000000 
	C629.083557,85.909950 640.681091,117.697487 652.403748,149.828003 
	C644.685608,149.828003 637.565002,149.828003 630.523865,149.828003 
	C628.324890,143.915985 626.284180,138.036499 623.878967,132.310104 
	C623.424561,131.228149 621.534424,130.126129 620.285095,130.100693 
	C611.132996,129.914413 601.971741,129.874725 592.823608,130.140884 
	C591.512573,130.179016 589.664612,131.854401 589.083191,133.209045 
	C587.129150,137.761566 585.804932,142.584183 583.854980,147.138748 
	C583.319885,148.388428 581.472839,149.813721 580.169983,149.872269 
	C573.870972,150.155365 567.552307,149.999863 560.818909,149.999863 
	C565.790649,136.086670 570.580505,122.537491 575.474609,109.026077 
	C580.595215,94.889748 585.806641,80.786247 591.007141,66.679001 
	C591.561462,65.175240 592.308716,63.742615 592.983459,61.871754 
M608.001343,88.580750 
	C607.535583,87.477669 607.069763,86.374588 606.387390,84.758720 
	C603.430420,93.072983 600.668274,100.839439 597.899597,108.624283 
	C603.874573,108.624283 609.391846,108.624283 615.597778,108.624283 
	C612.934082,101.836479 610.487183,95.600990 608.001343,88.580750 
z"/>
<path fill="#FFFFFF" opacity="1.000000" stroke="none" 
	d="
M796.317871,100.814346 
	C791.614868,96.781532 788.308228,92.296333 786.994202,86.476654 
	C784.080017,73.570648 789.567139,63.373043 799.111755,57.037590 
	C810.723633,49.329990 823.032837,49.814320 835.450012,54.961979 
	C839.124756,56.485394 842.633911,58.408226 846.559265,60.313202 
	C842.301392,66.318764 838.415527,71.799568 835.339600,76.138039 
	C828.603088,74.603577 822.896606,73.262436 817.164734,72.039940 
	C816.241882,71.843124 814.876282,71.801346 814.280151,72.327637 
	C811.739685,74.570557 807.837219,76.854332 807.500427,79.512032 
	C807.227661,81.664719 810.881714,85.278915 813.598328,86.642563 
	C818.988953,89.348488 825.296631,90.291260 830.551880,93.185539 
	C836.190857,96.291168 842.060852,99.976593 846.068970,104.855698 
	C857.736816,119.058762 850.343018,140.431702 835.535400,148.197800 
	C823.143738,154.696793 810.969727,153.948044 798.650146,149.083359 
	C793.193176,146.928558 788.122986,143.794281 782.286682,140.801865 
	C786.158020,134.364487 789.670898,128.523071 792.779541,123.353851 
	C800.014954,126.278587 806.322998,129.616638 813.045227,131.242157 
	C816.911194,132.177002 821.875610,131.220505 825.535400,129.445160 
	C828.069214,128.216019 830.551270,124.186195 830.660278,121.316788 
	C830.805115,117.502838 827.642334,114.496422 823.703369,112.994659 
	C816.845825,110.380127 809.978699,107.781738 803.204529,104.962692 
	C800.863220,103.988350 798.786926,102.377426 796.317871,100.814346 
z"/>
<path fill="#FFFFFF" opacity="1.000000" stroke="none" 
	d="
M334.980682,74.000000 
	C323.842712,74.000000 313.202515,74.000000 302.281891,74.000000 
	C302.281891,79.960625 302.281891,85.698402 302.281891,91.837936 
	C316.297699,91.837936 330.371490,91.837936 344.720459,91.837936 
	C344.720459,98.966507 344.720459,105.703827 344.720459,112.842072 
	C330.697723,112.842072 316.624054,112.842072 302.157471,112.842072 
	C302.157471,125.301697 302.157471,137.376541 302.157471,149.723160 
	C295.361237,149.723160 288.956757,149.723160 282.274475,149.723160 
	C282.274475,118.025383 282.274475,86.293304 282.274475,54.280228 
	C303.298004,54.280228 324.365875,54.280228 345.717468,54.280228 
	C345.717468,60.626530 345.717468,67.031479 345.717468,74.000000 
	C342.355438,74.000000 338.916931,74.000000 334.980682,74.000000 
z"/>
<path fill="#FFFFFF" opacity="1.000000" stroke="none" 
	d="
M873.000000,124.283195 
	C873.000000,122.665283 873.000000,121.511589 873.000000,118.910530 
	C880.695557,124.134613 884.001160,131.802979 890.000061,138.337845 
	C890.000061,132.790604 889.923096,127.953568 890.060913,123.122673 
	C890.090759,122.077293 890.892883,121.053970 891.339355,120.020500 
	C891.892883,120.946602 892.907959,121.863701 892.926270,122.800240 
	C893.062012,129.760223 892.999878,136.724060 892.999878,145.062256 
	C890.785522,143.649994 889.041077,143.038773 888.049744,141.816666 
	C884.194397,137.063461 880.578125,132.116364 876.000000,126.093056 
	C876.000000,131.695175 876.095764,136.044235 875.938354,140.384079 
	C875.894409,141.596603 875.103271,142.782028 874.654968,143.979874 
	C874.103333,142.719498 873.121094,141.474396 873.075745,140.196030 
	C872.893066,135.052094 873.000000,129.897842 873.000000,124.283195 
z"/>
<path fill="#FFFFFF" opacity="1.000000" stroke="none" 
	d="
M918.935303,140.979919 
	C920.554260,140.967758 921.762085,140.975250 922.969910,140.982742 
	C922.249695,141.868332 921.711060,143.138138 920.780212,143.577942 
	C914.093140,146.737534 907.131775,144.506058 903.783386,138.293167 
	C900.270142,131.774429 901.790527,124.611488 908.373291,121.484680 
	C911.635559,119.935112 915.959839,120.373581 919.794434,120.440163 
	C920.829224,120.458122 921.830444,122.403923 922.847107,123.464813 
	C921.457886,123.620560 919.955078,124.198067 918.699036,123.859550 
	C913.061768,122.340279 908.143372,124.204994 906.013855,128.880615 
	C904.312439,132.616409 905.564453,135.970093 908.122009,138.426376 
	C910.880005,141.075119 914.350342,143.036926 918.935303,140.979919 
z"/>
<path fill="#FFFFFF" opacity="1.000000" stroke="none" 
	d="
M863.999878,123.223328 
	C864.000000,130.299515 864.000000,136.894135 864.000000,143.678284 
	C861.428955,144.269272 859.821289,144.476654 859.934937,141.021484 
	C860.157349,134.255661 860.000183,127.477379 860.000183,120.419250 
	C862.218201,119.875710 864.322144,119.006874 863.999878,123.223328 
z"/>
<path fill="#000000" opacity="0.000000" stroke="none" 
	d="
M36.000038,235.000000 
	C28.189548,235.000000 20.879047,235.000000 13.285013,235.000000 
	C13.285013,161.041733 13.285013,87.306053 13.285013,13.285004 
	C86.958282,13.285004 160.693970,13.285004 234.714996,13.285004 
	C234.714996,86.958298 234.714996,160.693985 234.714996,235.000000 
	C168.685425,235.000000 102.592728,235.000000 36.000038,235.000000 
M190.067276,45.938148 
	C145.654800,45.938148 101.242332,45.938148 56.760475,45.938148 
	C56.760475,61.176655 56.760475,75.914886 56.760475,91.019333 
	C94.294388,91.019333 131.511459,91.019333 168.750275,91.019333 
	C168.750275,94.986702 168.750275,98.578011 168.750275,102.435974 
	C131.394226,102.435974 94.287231,102.435974 56.615479,102.188339 
	C56.564079,102.521973 56.512680,102.855598 56.441204,104.100807 
	C56.441204,118.227631 56.441204,132.354446 56.441204,146.813492 
	C94.146255,146.813492 131.390213,146.813492 168.699432,146.813492 
	C168.699432,151.042572 168.699432,154.927261 168.699432,159.205215 
	C131.187027,159.205215 93.973640,159.205215 56.696587,159.205215 
	C56.696587,173.364594 56.696587,187.122604 56.696587,200.629913 
	C64.528252,200.629913 72.101837,200.629913 79.921585,200.629913 
	C79.921585,192.323532 79.921585,184.381989 79.921585,176.293243 
	C86.064499,176.293243 91.940971,176.293243 98.200409,176.293243 
	C98.200409,184.657257 98.200409,192.733582 98.200409,200.831055 
	C103.723961,200.831055 108.862289,200.831055 114.538849,200.929489 
	C114.630898,200.622055 114.722946,200.314636 114.962616,199.079346 
	C114.962616,191.484863 114.962616,183.890396 114.962616,176.247665 
	C121.575516,176.247665 127.641037,176.247665 134.090729,176.247665 
	C134.090729,184.556931 134.090729,192.627548 134.090729,200.605209 
	C139.847519,200.605209 145.206955,200.605209 150.815170,200.605209 
	C150.815170,192.283234 150.815170,184.350723 150.815170,176.263062 
	C156.971664,176.263062 162.858337,176.263062 169.126831,176.263062 
	C169.126831,184.921143 169.126831,193.322418 169.126831,201.828308 
	C176.949097,201.828308 184.386993,201.828308 192.104263,201.828308 
	C192.247543,200.389709 192.487869,199.092667 192.489349,197.795364 
	C192.513351,176.827759 192.520142,155.860062 192.475464,134.892517 
	C192.472733,133.613663 192.007629,132.335770 191.909592,130.494980 
	C191.586517,130.423141 191.263458,130.351303 190.015549,130.179993 
	C153.094177,130.179993 116.172791,130.179993 79.316315,130.179993 
	C79.316315,125.929726 79.316315,122.358452 79.316315,118.446983 
	C117.063499,118.446983 154.495148,118.446983 192.215027,118.446983 
	C192.215027,103.863960 192.215027,89.626884 192.215027,74.882187 
	C154.466568,74.882187 116.906509,74.882187 79.287170,74.882187 
	C79.287170,70.639626 79.287170,66.908409 79.287170,62.809776 
	C116.975182,62.809776 154.377396,62.809776 191.854202,62.809776 
	C191.854202,57.295532 191.854202,52.156132 191.967621,46.420521 
	C191.641388,46.317799 191.315140,46.215073 190.067276,45.938148 
z"/>
<path fill="#000000" opacity="0.000000" stroke="none" 
	d="
M417.689697,78.196930 
	C423.393768,83.616287 424.948639,90.044693 422.862427,96.956573 
	C421.157562,102.604958 417.531860,107.709999 411.406128,108.645546 
	C405.263794,109.583633 398.866364,108.851685 392.290649,108.851685 
	C392.290649,97.415642 392.290649,86.035767 392.290649,73.908150 
	C400.666504,74.958321 409.700989,71.362305 417.689697,78.196930 
z"/>
<path fill="#000000" opacity="0.000000" stroke="none" 
	d="
M608.020752,88.973129 
	C610.487183,95.600990 612.934082,101.836479 615.597778,108.624283 
	C609.391846,108.624283 603.874573,108.624283 597.899597,108.624283 
	C600.668274,100.839439 603.430420,93.072983 606.387390,84.758720 
	C607.069763,86.374588 607.535583,87.477669 608.020752,88.973129 
z"/>
<path fill="#FFFFFF" opacity="1.000000" stroke="none" 
	d="
M191.757660,131.057434 
	C192.007629,132.335770 192.472733,133.613663 192.475464,134.892517 
	C192.520142,155.860062 192.513351,176.827759 192.489349,197.795364 
	C192.487869,199.092667 192.247543,200.389709 192.104263,201.828308 
	C184.386993,201.828308 176.949097,201.828308 169.126831,201.828308 
	C169.126831,193.322418 169.126831,184.921143 169.126831,176.263062 
	C162.858337,176.263062 156.971664,176.263062 150.815170,176.263062 
	C150.815170,184.350723 150.815170,192.283234 150.815170,200.605209 
	C145.206955,200.605209 139.847519,200.605209 134.090729,200.605209 
	C134.090729,192.627548 134.090729,184.556931 134.090729,176.247665 
	C127.641037,176.247665 121.575516,176.247665 114.962616,176.247665 
	C114.962616,183.890396 114.962616,191.484863 114.712868,199.636353 
	C114.247238,200.361145 114.093071,200.573715 114.000618,200.831055 
	C108.862289,200.831055 103.723961,200.831055 98.200409,200.831055 
	C98.200409,192.733582 98.200409,184.657257 98.200409,176.293243 
	C91.940971,176.293243 86.064499,176.293243 79.921585,176.293243 
	C79.921585,184.381989 79.921585,192.323532 79.921585,200.629913 
	C72.101837,200.629913 64.528252,200.629913 56.696587,200.629913 
	C56.696587,187.122604 56.696587,173.364594 56.696587,159.205215 
	C93.973640,159.205215 131.187027,159.205215 168.699432,159.205215 
	C168.699432,154.927261 168.699432,151.042572 168.699432,146.813492 
	C131.390213,146.813492 94.146255,146.813492 56.441204,146.813492 
	C56.441204,132.354446 56.441204,118.227631 56.690544,103.681580 
	C57.306480,103.069786 57.386600,102.794327 57.180241,102.435974 
	C94.287231,102.435974 131.394226,102.435974 168.750275,102.435974 
	C168.750275,98.578011 168.750275,94.986702 168.750275,91.019333 
	C131.511459,91.019333 94.294388,91.019333 56.760475,91.019333 
	C56.760475,75.914886 56.760475,61.176655 56.760475,45.938148 
	C101.242332,45.938148 145.654800,45.938148 190.604187,46.230808 
	C191.329010,46.759865 191.566711,46.924286 191.854202,47.016731 
	C191.854202,52.156132 191.854202,57.295532 191.854202,62.809776 
	C154.377396,62.809776 116.975182,62.809776 79.287170,62.809776 
	C79.287170,66.908409 79.287170,70.639626 79.287170,74.882187 
	C116.906509,74.882187 154.466568,74.882187 192.215027,74.882187 
	C192.215027,89.626884 192.215027,103.863960 192.215027,118.446983 
	C154.495148,118.446983 117.063499,118.446983 79.316315,118.446983 
	C79.316315,122.358452 79.316315,125.929726 79.316315,130.179993 
	C116.172791,130.179993 153.094177,130.179993 190.524414,130.434448 
	C191.211197,130.936707 191.452652,131.059555 191.757660,131.057434 
z"/>
<path fill="#8D8D8D" opacity="1.000000" stroke="none" 
	d="
M56.897858,102.312157 
	C57.386600,102.794327 57.306480,103.069786 56.700584,103.225792 
	C56.512680,102.855598 56.564079,102.521973 56.897858,102.312157 
z"/>
<path fill="#BEBEBE" opacity="1.000000" stroke="none" 
	d="
M191.833618,130.776215 
	C191.452652,131.059555 191.211197,130.936707 190.986832,130.484177 
	C191.263458,130.351303 191.586517,130.423141 191.833618,130.776215 
z"/>
<path fill="#DBDBDB" opacity="1.000000" stroke="none" 
	d="
M191.910919,46.718628 
	C191.566711,46.924286 191.329010,46.759865 191.065002,46.317909 
	C191.315140,46.215073 191.641388,46.317799 191.910919,46.718628 
z"/>
<path fill="#F3F3F3" opacity="1.000000" stroke="none" 
	d="
M114.269730,200.880280 
	C114.093071,200.573715 114.247238,200.361145 114.639053,200.100281 
	C114.722946,200.314636 114.630898,200.622055 114.269730,200.880280 
z"/>
</svg>